<?xml version="1.0" encoding="utf-8"?>
<!-- Generator: Adobe Illustrator 22.1.0, SVG Export Plug-In . SVG Version: 6.00 Build 0)  -->
<svg version="1.1"
	 id="Capa_1" xmlns:cc="http://creativecommons.org/ns#" xmlns:dc="http://purl.org/dc/elements/1.1/" xmlns:inkscape="http://www.inkscape.org/namespaces/inkscape" xmlns:rdf="http://www.w3.org/1999/02/22-rdf-syntax-ns#" xmlns:sodipodi="http://sodipodi.sourceforge.net/DTD/sodipodi-0.dtd" xmlns:svg="http://www.w3.org/2000/svg"
	 xmlns="http://www.w3.org/2000/svg" xmlns:xlink="http://www.w3.org/1999/xlink" x="0px" y="0px" viewBox="0 0 70 70"
	 style="enable-background:new 0 0 70 70;" xml:space="preserve">
<style type="text/css">
	.st0{fill:#FFFFFF;stroke:#000000;stroke-miterlimit:10;}
	.st1{fill:#D6D6D6;stroke:#000000;stroke-miterlimit:10;}
	.st2{fill:none;}
</style>
<circle class="st0" cx="35.8" cy="34.6" r="31.8"/>
<g>
	<g>
		<path d="M45.7,41.8H26.3c-0.7,0-1.2-0.6-1.2-1.2V29c0-0.7,0.6-1.2,1.2-1.2h19.4c0.7,0,1.2,0.6,1.2,1.2v11.7
			C47,41.3,46.4,41.8,45.7,41.8z M26.3,28.4c-0.3,0-0.5,0.2-0.5,0.5v11.7c0,0.3,0.2,0.5,0.5,0.5h19.4c0.3,0,0.5-0.2,0.5-0.5V29
			c0-0.3-0.2-0.5-0.5-0.5H26.3z"/>
		<g>
			<g>
				<path d="M35.1,39.1h-2.4c-0.2,0-0.4-0.2-0.4-0.4s0.2-0.4,0.4-0.4h2.4c0.2,0,0.4,0.2,0.4,0.4S35.3,39.1,35.1,39.1z"/>
			</g>
			<g>
				<path d="M30.5,39.1h-2.4c-0.2,0-0.4-0.2-0.4-0.4s0.2-0.4,0.4-0.4h2.4c0.2,0,0.4,0.2,0.4,0.4S30.7,39.1,30.5,39.1z"/>
			</g>
			<g>
				<path d="M39.7,39.1h-2.4c-0.2,0-0.4-0.2-0.4-0.4s0.2-0.4,0.4-0.4h2.4c0.2,0,0.4,0.2,0.4,0.4S39.9,39.1,39.7,39.1z"/>
			</g>
			<g>
				<path d="M44.3,39.1h-2.4c-0.2,0-0.4-0.2-0.4-0.4s0.2-0.4,0.4-0.4h2.4c0.2,0,0.4,0.2,0.4,0.4S44.5,39.1,44.3,39.1z"/>
			</g>
		</g>
		<path d="M31.7,36.8h-3.3c-0.5,0-0.9-0.4-0.9-0.9v-1.6c0-0.5,0.4-0.9,0.9-0.9h3.3c0.5,0,0.9,0.4,0.9,0.9v1.6
			C32.6,36.4,32.2,36.8,31.7,36.8z M28.4,34.1c-0.1,0-0.2,0.1-0.2,0.2v1.6c0,0.1,0.1,0.2,0.2,0.2h3.3c0.1,0,0.2-0.1,0.2-0.2v-1.6
			c0-0.1-0.1-0.2-0.2-0.2C31.7,34.1,28.4,34.1,28.4,34.1z"/>
	</g>
</g>
</svg>
