<?xml version="1.0" encoding="utf-8"?>
<!-- Generator: Adobe Illustrator 22.1.0, SVG Export Plug-In . SVG Version: 6.00 Build 0)  -->
<svg version="1.1"
	 id="Capa_1" xmlns:cc="http://creativecommons.org/ns#" xmlns:dc="http://purl.org/dc/elements/1.1/" xmlns:inkscape="http://www.inkscape.org/namespaces/inkscape" xmlns:rdf="http://www.w3.org/1999/02/22-rdf-syntax-ns#" xmlns:sodipodi="http://sodipodi.sourceforge.net/DTD/sodipodi-0.dtd" xmlns:svg="http://www.w3.org/2000/svg"
	 xmlns="http://www.w3.org/2000/svg" xmlns:xlink="http://www.w3.org/1999/xlink" x="0px" y="0px" viewBox="0 0 52.1 65.4"
	 style="enable-background:new 0 0 52.1 65.4;" xml:space="preserve">
<g transform="translate(0,-952.36218)">
	<path d="M26.5,956.9c-8.2,0-14.8,6.6-14.8,14.8v9.9H9.2c-2,0-3.7,1.7-3.7,3.7v22.2c0,2,1.7,3.7,3.7,3.7h34.6c2,0,3.7-1.7,3.7-3.7
		v-22.2c0-2-1.7-3.7-3.7-3.7h-2.5v-9.9C41.3,963.5,34.7,956.9,26.5,956.9z M26.5,959.4c6.9,0,12.4,5.5,12.4,12.4v9.9H14.1v-9.9
		C14.1,964.9,19.6,959.4,26.5,959.4z M9.2,984.1h34.6c0.7,0,1.2,0.5,1.2,1.2v22.2c0,0.7-0.5,1.2-1.2,1.2H9.2c-0.7,0-1.2-0.5-1.2-1.2
		v-22.2C7.9,984.6,8.5,984.1,9.2,984.1z M26.5,989.6c-2.7,0-4.9,2.2-4.9,4.9c0,2.3,1.6,4.2,3.7,4.8v2.6c0,0.7,0.5,1.2,1.2,1.3
		c0.7,0,1.2-0.5,1.3-1.2c0,0,0,0,0,0v-2.6c2.1-0.6,3.7-2.5,3.7-4.8C31.4,991.9,29.2,989.6,26.5,989.6z M26.5,992.1
		c1.4,0,2.5,1.1,2.5,2.5s-1.1,2.5-2.5,2.5c-1.4,0-2.5-1.1-2.5-2.5S25.1,992.1,26.5,992.1z"/>
</g>
</svg>
