<?xml version="1.0" encoding="utf-8"?>
<!-- Generator: Adobe Illustrator 22.1.0, SVG Export Plug-In . SVG Version: 6.00 Build 0)  -->
<svg version="1.1"
	 id="Capa_1" xmlns:cc="http://creativecommons.org/ns#" xmlns:dc="http://purl.org/dc/elements/1.1/" xmlns:inkscape="http://www.inkscape.org/namespaces/inkscape" xmlns:rdf="http://www.w3.org/1999/02/22-rdf-syntax-ns#" xmlns:sodipodi="http://sodipodi.sourceforge.net/DTD/sodipodi-0.dtd" xmlns:svg="http://www.w3.org/2000/svg"
	 xmlns="http://www.w3.org/2000/svg" xmlns:xlink="http://www.w3.org/1999/xlink" x="0px" y="0px" viewBox="0 0 70 70"
	 style="enable-background:new 0 0 70 70;" xml:space="preserve">
<style type="text/css">
	.st0{fill:#FFFFFF;stroke:#000000;stroke-miterlimit:10;}
	.st1{fill:#D6D6D6;stroke:#000000;stroke-miterlimit:10;}
	.st2{fill:none;}
</style>
<circle class="st0" cx="35.8" cy="34.6" r="31.8"/>
<path d="M44.4,28.8h-3.3v-2.2c0-0.3-0.2-0.6-0.6-0.6c-0.3,0-0.6,0.2-0.6,0.6v2.2h-3.9v-2.2c0-0.3-0.2-0.6-0.6-0.6
	c-0.3,0-0.6,0.2-0.6,0.6v2.2h-3.9v-2.2c0-0.3-0.2-0.6-0.6-0.6S30,26.2,30,26.5v2.2h-3.3c-0.6,0-1.1,0.5-1.1,1.1v13.8
	c0,0.6,0.5,1.1,1.1,1.1h17.7c0.6,0,1.1-0.5,1.1-1.1V29.9C45.5,29.3,45,28.8,44.4,28.8z M44.4,43.7H26.7V29.9H30v0.6
	c0,0.3,0.2,0.6,0.6,0.6s0.6-0.2,0.6-0.6v-0.6H35v0.6c0,0.3,0.2,0.6,0.6,0.6c0.3,0,0.6-0.2,0.6-0.6v-0.6H40v0.6
	c0,0.3,0.2,0.6,0.6,0.6c0.3,0,0.6-0.2,0.6-0.6v-0.6h3.3V43.7z"/>
<path d="M39.3,34.3L34,39.6l-2.2-2.2c-0.2-0.2-0.6-0.2-0.8,0s-0.2,0.6,0,0.8l2.6,2.6c0.1,0.1,0.2,0.2,0.4,0.2c0.1,0,0.3-0.1,0.4-0.2
	l5.7-5.7c0.2-0.2,0.2-0.6,0-0.8C39.8,34,39.5,34,39.3,34.3z"/>
</svg>
