<?xml version="1.0" encoding="utf-8"?>
<!-- Generator: Adobe Illustrator 22.1.0, SVG Export Plug-In . SVG Version: 6.00 Build 0)  -->
<svg version="1.1"
	 id="Capa_1" xmlns:cc="http://creativecommons.org/ns#" xmlns:dc="http://purl.org/dc/elements/1.1/" xmlns:inkscape="http://www.inkscape.org/namespaces/inkscape" xmlns:rdf="http://www.w3.org/1999/02/22-rdf-syntax-ns#" xmlns:sodipodi="http://sodipodi.sourceforge.net/DTD/sodipodi-0.dtd" xmlns:svg="http://www.w3.org/2000/svg"
	 xmlns="http://www.w3.org/2000/svg" xmlns:xlink="http://www.w3.org/1999/xlink" x="0px" y="0px" viewBox="0 0 70 70"
	 style="enable-background:new 0 0 70 70;" xml:space="preserve">
<style type="text/css">
	.st0{fill:#FFFFFF;stroke:#000000;stroke-miterlimit:10;}
	.st1{fill:#D6D6D6;stroke:#000000;stroke-miterlimit:10;}
	.st2{fill:none;}
</style>
<circle class="st1" cx="35.8" cy="34.6" r="31.8"/>
<g transform="translate(0,-952.36218)">
	<path d="M35,976.3c-3.3,0-5.9,2.6-5.9,5.9v4h-1c-0.8,0-1.5,0.7-1.5,1.5v8.9c0,0.8,0.7,1.5,1.5,1.5h13.8c0.8,0,1.5-0.7,1.5-1.5v-8.9
		c0-0.8-0.7-1.5-1.5-1.5h-1v-4C40.9,978.9,38.3,976.3,35,976.3z M35,977.3c2.8,0,5,2.2,5,5v4H30v-4C30,979.5,32.2,977.3,35,977.3z
		 M28.1,987.1h13.8c0.3,0,0.5,0.2,0.5,0.5v8.9c0,0.3-0.2,0.5-0.5,0.5H28.1c-0.3,0-0.5-0.2-0.5-0.5v-8.9
		C27.6,987.3,27.8,987.1,28.1,987.1z M35,989.3c-1.1,0-2,0.9-2,2c0,0.9,0.6,1.7,1.5,1.9v1c0,0.3,0.2,0.5,0.5,0.5
		c0.3,0,0.5-0.2,0.5-0.5l0,0v-1c0.8-0.2,1.5-1,1.5-1.9C37,990.3,36.1,989.3,35,989.3z M35,990.3c0.6,0,1,0.4,1,1s-0.4,1-1,1
		s-1-0.4-1-1S34.4,990.3,35,990.3z"/>
</g>
</svg>
